<svg xmlns="http://www.w3.org/2000/svg" xmlns:xlink="http://www.w3.org/1999/xlink" width="24" height="24" preserveAspectRatio="xMidYMid meet" viewBox="0 0 24 24" style="-ms-transform: rotate(360deg); -webkit-transform: rotate(360deg); transform: rotate(360deg);"><path d="M22 7c.55 0 1-.45 1-1V2c0-.55-.45-1-1-1h-4c-.55 0-1 .45-1 1v1H7V2c0-.55-.45-1-1-1H2c-.55 0-1 .45-1 1v4c0 .55.45 1 1 1h1v10H2c-.55 0-1 .45-1 1v4c0 .55.45 1 1 1h4c.55 0 1-.45 1-1v-1h10v1c0 .55.45 1 1 1h4c.55 0 1-.45 1-1v-4c0-.55-.45-1-1-1h-1V7h1zM3 3h2v2H3V3zm2 18H3v-2h2v2zm12-3v1H7v-1c0-.55-.45-1-1-1H5V7h1c.55 0 1-.45 1-1V5h10v1c0 .55.45 1 1 1h1v10h-1c-.55 0-1 .45-1 1zm4 3h-2v-2h2v2zM19 5V3h2v2h-2zm-7 2c-.48 0-.92.3-1.09.75l-2.73 7.27c-.17.47.18.98.68.98c.31 0 .58-.19.68-.48l.65-1.82h3.63l.64 1.82a.725.725 0 1 0 1.36-.5l-2.73-7.27C12.92 7.3 12.49 7 12 7zm-1.34 5.39l1.31-3.72h.08l1.31 3.72h-2.7z" fill="#434c5e"/><rect x="0" y="0" width="24" height="24" fill="rgba(0, 0, 0, 0)" /></svg>