<svg version="1.2" baseProfile="tiny-ps" xmlns="http://www.w3.org/2000/svg" viewBox="0 0 1024 1024" width="1024" height="1024">
	<title>New Project</title>
	<style>
		tspan { white-space:pre }
	</style>
	<path id="{{ " fill="#bf616a" aria-label="{{"  d="M162.22 703.25L151.21 735.61Q70.21 712.89 68.6 632.12L68.6 583.24Q68.6 531.61 24.32 531.61L24.32 490.77Q68.6 490.77 68.6 438.91L68.6 390.27Q69.29 348.96 89.94 323.49Q110.83 298.02 151.21 286.55L162.22 318.67Q122.53 331.52 121.15 388.89L121.15 438.45Q121.15 490.08 81.45 510.96Q121.15 532.07 121.15 584.16L121.15 633.04Q122.53 690.4 162.22 703.25ZM319.86 703.25L308.85 735.61Q227.85 712.89 226.24 632.12L226.24 583.24Q226.24 531.61 181.96 531.61L181.96 490.77Q226.24 490.77 226.24 438.91L226.24 390.27Q226.93 348.96 247.58 323.49Q268.46 298.02 308.85 286.55L319.86 318.67Q280.17 331.52 278.79 388.89L278.79 438.45Q278.79 490.08 239.09 510.96Q278.79 532.07 278.79 584.16L278.79 633.04Q280.17 690.4 319.86 703.25Z" />
	<path id="Z " fill="#bf616a" aria-label="Z"  d="M636.47 380.62L463.46 631.65L641.98 631.65L641.98 678L393.24 678L393.24 640.37L566.03 390.71L394.39 390.71L394.39 343.9L636.47 343.9L636.47 380.62Z" />
	<path id="}} " fill="#bf616a" aria-label="}}"  d="M727.32 735.61L716.3 703.25Q756.69 690.17 757.61 631.66L757.61 583.93Q757.61 530.93 799.37 511.19Q757.61 491.46 757.61 437.77L757.61 390.27Q756.69 331.75 716.3 318.67L727.32 286.55Q769.08 298.25 789.5 324.64Q809.92 350.8 809.92 393.25L809.92 439.14Q809.92 490.77 854.44 490.77L854.44 531.61Q809.92 531.61 809.92 583.24L809.92 628.45Q809.92 671.36 789.27 697.74Q768.85 723.9 727.32 735.61ZM884.96 735.61L873.94 703.25Q914.33 690.17 915.25 631.66L915.25 583.93Q915.25 530.93 957.01 511.19Q915.25 491.46 915.25 437.77L915.25 390.27Q914.33 331.75 873.94 318.67L884.96 286.55Q926.72 298.25 947.14 324.64Q967.56 350.8 967.56 393.25L967.56 439.14Q967.56 490.77 1012.08 490.77L1012.08 531.61Q967.56 531.61 967.56 583.24L967.56 628.45Q967.56 671.36 946.91 697.74Q926.49 723.9 884.96 735.61Z" />
</svg>